PathFileType	4	(X/Y/Z)	 s11c0401.trc
DataRate	CameraRate	NumFrames	NumMarkers	Units	OrigDataRate	OrigDataStartFrame	OrigNumFrames
200	200	5	48	mm	200	501	2000
Frame#	Time	racr			lacr			c7			jug			rlel			rdr			llel			ldr			s2			lic			ric			lasi			rasi			rpsi			lpsi			rgt			lgt			rth1			rth2			rth3			rth4			rlfc			rmfc			rsh1			rsh2			rsh3			rsh4			rlmal			rcal			rtoe			rmt5			lth1			lth2			lth4			lth3			llfc			lmfc			llmal			lcal			lmt5			lsh1			lsh2			lsh3			lsh4			ltoe			SBIKE			LBIKE			RBIKE			
		X1	Y1	Z1	X2	Y2	Z2	X3	Y3	Z3	X4	Y4	Z4	X5	Y5	Z5	X6	Y6	Z6	X7	Y7	Z7	X8	Y8	Z8	X9	Y9	Z9	X10	Y10	Z10	X11	Y11	Z11	X12	Y12	Z12	X13	Y13	Z13	X14	Y14	Z14	X15	Y15	Z15	X16	Y16	Z16	X17	Y17	Z17	X18	Y18	Z18	X19	Y19	Z19	X20	Y20	Z20	X21	Y21	Z21	X22	Y22	Z22	X23	Y23	Z23	X24	Y24	Z24	X25	Y25	Z25	X26	Y26	Z26	X27	Y27	Z27	X28	Y28	Z28	X29	Y29	Z29	X30	Y30	Z30	X31	Y31	Z31	X32	Y32	Z32	X33	Y33	Z33	X34	Y34	Z34	X35	Y35	Z35	X36	Y36	Z36	X37	Y37	Z37	X38	Y38	Z38	X39	Y39	Z39	X40	Y40	Z40	X41	Y41	Z41	X42	Y42	Z42	X43	Y43	Z43	X44	Y44	Z44	X45	Y45	Z45	X46	Y46	Z46	X47	Y47	Z47	X48	Y48	Z48	
501	2.5050	725.325188	1355.272696	-66.565087	735.091016	1354.822807	-428.704888	693.259553	1455.614492	-247.297947	695.106290	1271.820446	-253.307093	571.038993	1125.746277	39.224995	761.644599	956.717358	-41.586762	528.323170	1132.914263	-562.451372	757.457606	954.696306	-460.273956	106.255117	1246.264137	-242.476998	312.716262	1237.491267	-459.265802	334.475255	1226.829891	-58.302687	332.671688	1158.070916	-426.192771	347.427939	1159.353033	-96.836179	164.075418	1315.940330	-192.210298	153.551740	1309.970368	-287.454938	268.071404	1090.887428	-34.786077	213.789889	1104.989568	-456.140066	365.772503	993.616815	-25.435063	440.423494	946.782045	-37.209567	480.357998	869.290402	-44.756321	465.391378	970.478823	-50.509326	539.727747	785.762994	-56.411104	540.448370	762.914586	-187.218437	411.836942	687.582693	-47.496549	352.243858	627.044208	-70.144758	269.477650	599.600413	-72.872763	369.338964	608.416128	-100.596517	148.960586	547.434650	-85.162181	103.341257	595.547166	-133.558140	219.305398	333.017231	-141.116906	159.139526	375.680790	-70.894262	306.379160	979.299244	-465.468194	368.111120	921.335402	-455.337633	399.793297	939.921574	-450.156029	393.211751	835.707665	-443.177642	458.791937	713.656100	-415.023430	460.483965	708.172338	-289.188237	274.618861	320.626856	-404.353791	210.652035	278.724089	-373.392862	413.484838	226.244606	-439.255038	405.440359	598.051356	-435.952695	394.746057	514.216994	-420.790867	344.389263	441.644288	-419.201714	422.847996	506.661108	-397.252973	508.774356	246.145168	-368.669709	-203.820422	959.614506	-263.031212	1.516960	82.370056	-461.061019	-15.204166	81.090905	-62.566638	
502	2.5100	724.736293	1354.534610	-64.843272	735.283082	1355.578190	-427.026889	692.719515	1455.714393	-245.305848	695.128864	1271.863589	-251.876432	570.111559	1124.720501	40.380193	761.319846	956.695789	-42.113603	529.302629	1133.550278	-561.879984	758.175284	954.797326	-460.023123	106.305622	1244.603008	-243.497549	312.752895	1235.611736	-459.787775	334.090906	1227.412698	-58.737716	333.667506	1156.833456	-427.080879	346.589260	1159.786763	-97.742598	163.283724	1314.965211	-193.888142	153.571640	1308.164028	-288.737300	270.733773	1092.682835	-35.042616	212.489063	1102.485380	-456.177988	369.894797	996.790058	-25.634770	445.166273	950.953833	-37.892902	486.120412	874.126856	-45.301079	469.573560	974.920156	-50.869100	546.974949	791.886315	-57.042855	546.683123	768.281959	-187.187343	419.141412	693.864952	-47.759282	359.226270	633.723360	-70.287701	276.425864	606.535533	-72.791674	376.032848	614.992546	-100.883790	155.482634	554.734391	-84.723394	109.838899	603.261200	-132.981527	224.832568	340.144617	-140.972752	164.743631	383.183666	-70.646635	303.024541	975.966151	-465.338094	363.649331	916.859822	-455.217486	395.519857	934.596671	-449.987559	387.172667	830.823875	-442.964201	451.333773	707.408177	-414.205895	452.804808	701.558540	-288.809297	269.091551	313.173796	-404.193250	205.213530	271.535453	-373.362193	407.919690	218.638180	-439.252440	398.514645	591.219411	-435.304657	388.241726	507.383568	-420.272516	338.312274	434.472440	-418.922292	416.231322	500.012503	-396.614665	503.320984	238.141282	-368.640601	-203.829731	959.609827	-263.048822	1.502911	82.394012	-461.023788	-15.141701	81.076399	-62.633991	
503	2.5150	724.112815	1353.927627	-63.009915	735.542676	1356.218007	-425.266354	692.244391	1455.837609	-243.105702	695.025576	1271.861280	-250.384042	569.157806	1123.590554	41.703181	761.048522	956.789177	-42.690974	530.336561	1134.062624	-561.245963	758.745312	954.809051	-459.835509	105.876645	1243.632206	-244.175980	312.815182	1233.894460	-460.245002	333.731361	1228.044895	-58.921887	334.647489	1155.883337	-427.926838	346.632810	1160.704448	-97.669903	162.795796	1314.310024	-195.304437	153.685153	1306.718944	-290.018971	273.114686	1094.727469	-35.351586	211.218384	1100.326633	-456.141937	373.730316	1000.057063	-26.029463	449.545645	955.528832	-38.492469	491.786820	879.306617	-45.759317	473.793050	979.789709	-52.051178	554.018546	798.568996	-57.734332	553.304408	774.548599	-188.168957	426.344363	700.470887	-48.156002	366.041414	640.512668	-70.546351	283.117997	613.766642	-72.840387	382.842638	621.620237	-101.083368	161.656820	561.801000	-84.542874	116.040976	610.418096	-132.709631	230.859126	347.309321	-140.770002	170.883028	390.281176	-70.527598	299.719252	972.863830	-465.213663	359.203676	912.622200	-455.134888	391.588597	929.939443	-450.170622	380.943900	826.193333	-442.827551	443.301628	701.398829	-413.472020	444.809778	695.434589	-288.608484	263.173839	306.090181	-404.031101	199.433981	264.774049	-373.450021	402.013933	211.159925	-439.224321	390.913229	584.819414	-435.019039	381.169449	500.937792	-419.974602	331.749763	427.702097	-418.748525	409.391050	492.946719	-394.480746	497.482358	230.455149	-368.718466	-203.830386	959.595587	-263.047038	1.510733	82.299122	-460.988937	-15.210435	81.061804	-62.563383	
504	2.5200	723.524251	1353.309972	-61.080493	735.797191	1356.854464	-423.486295	691.892973	1455.933799	-241.053119	694.857891	1271.861264	-248.844437	568.249502	1122.516976	42.989074	760.857396	956.953552	-43.212735	531.390199	1134.696750	-560.606939	759.232602	954.779368	-459.667142	106.177230	1242.470243	-245.401193	312.948408	1232.526029	-460.636819	333.261585	1229.092422	-58.950068	335.626173	1155.267097	-428.723508	346.262151	1162.298463	-98.816586	161.965061	1314.464657	-196.655135	153.814269	1305.607925	-291.285494	275.122049	1097.079221	-35.740612	210.147740	1098.725497	-456.355319	377.105941	1003.470048	-26.414968	453.669157	960.078455	-39.139039	497.269310	884.728474	-46.175076	477.370936	984.880752	-52.791775	561.030683	805.254330	-58.482356	559.892828	780.912953	-189.096446	433.397308	707.128484	-48.688044	372.806623	647.460997	-70.820267	289.586801	621.211962	-72.872075	389.339762	628.461070	-101.344604	168.403027	569.097714	-84.332964	122.363431	617.538989	-132.300876	237.266494	354.415131	-140.574710	177.115878	397.482672	-70.513840	296.486603	970.102298	-465.153043	354.671538	908.641900	-455.010536	387.429487	925.235977	-450.173733	374.660811	821.747053	-442.460761	434.769046	695.775196	-412.982535	436.488560	689.452796	-288.493276	256.953837	299.421418	-404.012477	193.264289	258.434134	-373.700422	395.680851	204.219872	-439.369846	382.700034	578.933539	-434.879955	373.576329	494.993227	-419.814083	324.659462	421.365340	-418.661373	401.867715	487.198290	-394.276766	491.168388	223.140268	-368.713222	-203.857179	959.577588	-263.061567	1.513423	82.271517	-460.995508	-15.194012	81.068507	-62.544595	
505	2.5250	722.901587	1352.831195	-59.057786	736.075038	1357.363474	-421.661781	691.642837	1456.081688	-238.869559	694.711595	1271.868290	-247.192173	567.400556	1121.471817	44.228952	760.791253	957.250533	-43.691898	532.461130	1135.396313	-560.036623	759.681961	954.611737	-459.545984	106.088389	1241.974075	-246.558781	313.204784	1231.522873	-460.964836	332.701731	1230.286403	-58.882641	336.597005	1154.951789	-429.460731	345.847813	1163.478780	-101.905541	161.326025	1314.505210	-198.432471	154.032956	1304.867739	-292.648613	276.768898	1099.536893	-35.904858	209.174957	1097.558202	-456.252027	380.194394	1006.931113	-26.953995	457.450097	965.008758	-39.900951	502.503480	890.376801	-46.919656	480.683735	990.093199	-53.755183	567.919442	812.115961	-59.231274	566.206144	787.562608	-190.162129	440.260848	713.938767	-49.325066	379.454122	654.425029	-71.168366	296.179764	628.355484	-73.109171	395.823775	635.225557	-101.669839	174.738269	575.794456	-84.452030	128.405937	624.149872	-132.356436	244.193905	361.319211	-140.459882	184.159153	404.178772	-70.203066	293.248910	967.602056	-465.090786	350.098521	904.856484	-454.970263	383.186315	920.889004	-450.202055	368.205882	817.623586	-442.137709	425.671023	690.455419	-412.578287	428.938465	684.194033	-287.840242	250.424230	293.106437	-403.979234	186.826629	252.536862	-373.677201	389.039084	197.576565	-439.462837	373.937376	573.478734	-434.800799	365.425846	489.517028	-419.835316	317.060094	415.564579	-418.724487	393.843263	481.941080	-394.432932	484.619387	216.144683	-368.855365	-203.895501	959.543295	-263.086810	1.491673	82.286424	-460.968779	-15.217156	81.014214	-62.553439	
